<svg width="25" height="24" viewBox="0 0 25 24" fill="none" xmlns="http://www.w3.org/2000/svg">
<g clip-path="url(#clip0_8573_64965)">
<path d="M23.5955 9.91453L13.8061 9.91406C13.3738 9.91406 13.0234 10.2644 13.0234 10.6967V13.824C13.0234 14.2561 13.3738 14.6066 13.8061 14.6066H19.3188C18.7152 16.1732 17.5885 17.4852 16.151 18.3188L18.5017 22.388C22.2724 20.2072 24.5017 16.3808 24.5017 12.0975C24.5017 11.4876 24.4567 11.0516 24.3668 10.5607C24.2985 10.1877 23.9747 9.91453 23.5955 9.91453Z" fill="#167EE6"/>
<path d="M12.4964 19.3037C9.79851 19.3037 7.44332 17.8297 6.1784 15.6484L2.10938 17.9938C4.18008 21.5826 8.05917 23.9994 12.4964 23.9994C14.6731 23.9994 16.727 23.4133 18.4963 22.3919V22.3863L16.1457 18.3171C15.0705 18.9408 13.8262 19.3037 12.4964 19.3037Z" fill="#12B347"/>
<path d="M18.5 22.3951V22.3895L16.1494 18.3203C15.0741 18.9439 13.83 19.3069 12.5 19.3069V24.0026C14.6767 24.0026 16.7308 23.4165 18.5 22.3951Z" fill="#0F993E"/>
<path d="M5.19566 12.0022C5.19566 10.6724 5.55856 9.42832 6.18205 8.35315L2.11302 6.00781C1.08603 7.77158 0.5 9.81992 0.5 12.0022C0.5 14.1845 1.08603 16.2329 2.11302 17.9966L6.18205 15.6513C5.55856 14.5761 5.19566 13.332 5.19566 12.0022Z" fill="#FFD500"/>
<path d="M12.4964 4.69566C14.2556 4.69566 15.8716 5.32078 17.1338 6.36061C17.4452 6.61711 17.8978 6.59859 18.183 6.31336L20.3988 4.09758C20.7224 3.77395 20.6994 3.24422 20.3536 2.94431C18.2389 1.10967 15.4873 0 12.4964 0C8.05917 0 4.18008 2.41673 2.10938 6.00558L6.17841 8.35092C7.44333 6.16969 9.79852 4.69566 12.4964 4.69566Z" fill="#FF4B26"/>
<path d="M17.1374 6.36061C17.4488 6.61711 17.9015 6.59859 18.1866 6.31336L20.4024 4.09758C20.726 3.77395 20.7029 3.24422 20.3573 2.94431C18.2425 1.10963 15.491 0 12.5 0V4.69566C14.2592 4.69566 15.8752 5.32078 17.1374 6.36061Z" fill="#D93F21"/>
</g>
<defs>
<clipPath id="clip0_8573_64965">
<rect width="24" height="24" fill="white" transform="translate(0.5)"/>
</clipPath>
</defs>
</svg>
